<svg width="21" height="27" viewBox="0 0 21 27" fill="none" xmlns="http://www.w3.org/2000/svg">
<path fill-rule="evenodd" clip-rule="evenodd" d="M16.9769 14.2504C17.9001 12.4722 18.3396 11.0831 18.3396 10.1887C18.3396 5.68704 14.6903 2.03774 10.1887 2.03774C5.68704 2.03774 2.03774 5.68704 2.03774 10.1887C2.03774 11.0831 2.47728 12.4722 3.40051 14.2504C4.29007 15.9639 5.49882 17.7975 6.74186 19.5053C7.97948 21.2056 9.2216 22.741 10.1566 23.8534C10.1673 23.8662 10.178 23.8789 10.1887 23.8915C10.1993 23.8789 10.21 23.8662 10.2207 23.8534C11.1558 22.741 12.3979 21.2056 13.6355 19.5053C14.8785 17.7975 16.0873 15.9639 16.9769 14.2504ZM11.5376 25.4525C14.3072 22.1861 20.3774 14.532 20.3774 10.1887C20.3774 4.56163 15.8157 0 10.1887 0C4.56163 0 0 4.56163 0 10.1887C0 14.532 6.07011 22.1861 8.83976 25.4525C9.65839 26.4179 10.1887 27 10.1887 27C10.1887 27 10.719 26.4179 11.5376 25.4525Z" fill="#1857A3"/>
<path fill-rule="evenodd" clip-rule="evenodd" d="M10.1888 13.2453C11.8769 13.2453 13.2454 11.8768 13.2454 10.1887C13.2454 8.50055 11.8769 7.13207 10.1888 7.13207C8.50071 7.13207 7.13222 8.50055 7.13222 10.1887C7.13222 11.8768 8.50071 13.2453 10.1888 13.2453ZM10.1888 15.283C13.0023 15.283 15.2832 13.0022 15.2832 10.1887C15.2832 7.37514 13.0023 5.09433 10.1888 5.09433C7.3753 5.09433 5.09448 7.37514 5.09448 10.1887C5.09448 13.0022 7.3753 15.283 10.1888 15.283Z" fill="#1857A3"/>
</svg>
