<svg width="26" height="26" viewBox="0 0 26 26" fill="none" xmlns="http://www.w3.org/2000/svg">
<path d="M13 6.09375C14.6801 6.09375 16.0469 4.72702 16.0469 3.04688C16.0469 1.36673 14.6801 0 13 0C11.3199 0 9.95312 1.36673 9.95312 3.04688C9.95312 4.72702 11.3199 6.09375 13 6.09375ZM13 2.03125C13.56 2.03125 14.0156 2.48689 14.0156 3.04688C14.0156 3.60686 13.56 4.0625 13 4.0625C12.44 4.0625 11.9844 3.60686 11.9844 3.04688C11.9844 2.48689 12.44 2.03125 13 2.03125ZM18.5859 16.1532C18.5859 17.3946 17.9246 18.5625 16.8602 19.2013L16.7868 19.2453C16.3303 19.5192 16.0469 20.0197 16.0469 20.5517V24.9844C16.0469 25.5453 15.5922 26 15.0312 26C14.4703 26 14.0156 25.5453 14.0156 24.9844V20.5517C14.0156 19.3104 14.677 18.1424 15.7414 17.5037L15.8148 17.4596C16.2712 17.1859 16.5547 16.6852 16.5547 16.1532V11.6289C16.5547 9.53041 14.6077 9.08984 12.9746 9.08984C11.3415 9.08984 9.39453 9.53041 9.39453 11.6289V16.1385C9.39453 16.6761 9.68236 17.1791 10.1455 17.4517L10.2318 17.5025C11.3129 18.1384 11.9844 19.3123 11.9844 20.5664V24.9844C11.9844 25.5453 11.5297 26 10.9688 26C10.4078 26 9.95312 25.5453 9.95312 24.9844V20.5664C9.95312 20.0288 9.6653 19.5258 9.20212 19.2534L9.11583 19.2027C8.03474 18.5667 7.36328 17.3926 7.36328 16.1385V11.6289C7.36328 10.0989 7.98099 8.86569 9.14975 8.06271C10.1059 7.40573 11.4286 7.05859 12.9746 7.05859C14.5207 7.05859 15.8434 7.40573 16.7995 8.06271C17.9682 8.86569 18.5859 10.0989 18.5859 11.6289V16.1532ZM5.07812 8.125C6.75827 8.125 8.125 6.75827 8.125 5.07812C8.125 3.39798 6.75827 2.03125 5.07812 2.03125C3.39798 2.03125 2.03125 3.39798 2.03125 5.07812C2.03125 6.75827 3.39798 8.125 5.07812 8.125ZM5.07812 4.0625C5.63811 4.0625 6.09375 4.51814 6.09375 5.07812C6.09375 5.63811 5.63811 6.09375 5.07812 6.09375C4.51814 6.09375 4.0625 5.63811 4.0625 5.07812C4.0625 4.51814 4.51814 4.0625 5.07812 4.0625ZM8.125 21.4297V24.9844C8.125 25.5453 7.67035 26 7.10938 26C6.5484 26 6.09375 25.5453 6.09375 24.9844V21.4297C6.09375 20.8687 6.5484 20.4141 7.10938 20.4141C7.67035 20.4141 8.125 20.8687 8.125 21.4297ZM5.99219 10.1309C5.99219 10.6918 5.53754 11.1465 4.97656 11.1465C2.03125 11.1465 2.03125 12.5299 2.03125 13.0508V17.3672C2.03125 17.8443 2.25897 18.2997 2.64062 18.5859C3.53088 19.2536 4.0625 20.3169 4.0625 21.4297V24.9844C4.0625 25.5453 3.60785 26 3.04688 26C2.4859 26 2.03125 25.5453 2.03125 24.9844V21.4297C2.03125 20.9526 1.80353 20.4972 1.42188 20.2109C0.531616 19.5432 0 18.48 0 17.3672V13.0508C0 11.6779 0.563751 10.593 1.63016 9.91385C2.4621 9.38382 3.58801 9.11523 4.97656 9.11523C5.53754 9.11523 5.99219 9.56989 5.99219 10.1309ZM20.9219 8.125C22.602 8.125 23.9688 6.75827 23.9688 5.07812C23.9688 3.39798 22.602 2.03125 20.9219 2.03125C19.2417 2.03125 17.875 3.39798 17.875 5.07812C17.875 6.75827 19.2417 8.125 20.9219 8.125ZM20.9219 4.0625C21.4819 4.0625 21.9375 4.51814 21.9375 5.07812C21.9375 5.63811 21.4819 6.09375 20.9219 6.09375C20.3619 6.09375 19.9062 5.63811 19.9062 5.07812C19.9062 4.51814 20.3619 4.0625 20.9219 4.0625ZM19.9062 21.4297V24.9844C19.9062 25.5453 19.4516 26 18.8906 26C18.3297 26 17.875 25.5453 17.875 24.9844V21.4297C17.875 20.8687 18.3297 20.4141 18.8906 20.4141C19.4516 20.4141 19.9062 20.8687 19.9062 21.4297ZM26 13.0508V17.3672C26 18.48 25.4684 19.5432 24.5781 20.2109C24.1965 20.4972 23.9688 20.9526 23.9688 21.4297V24.9844C23.9688 25.5453 23.5141 26 22.9531 26C22.3922 26 21.9375 25.5453 21.9375 24.9844V21.4297C21.9375 20.3169 22.4691 19.2536 23.3594 18.5859C23.741 18.2997 23.9688 17.8443 23.9688 17.3672V13.0508C23.9688 12.5299 23.9688 11.1465 21.0234 11.1465C20.4625 11.1465 20.0078 10.6918 20.0078 10.1309C20.0078 9.56989 20.4625 9.11523 21.0234 9.11523C22.412 9.11523 23.5379 9.38382 24.3698 9.91385C25.4362 10.593 26 11.6779 26 13.0508Z" fill="#1857A3"/>
</svg>
