<svg width="24" height="24" viewBox="0 0 24 24" fill="none" xmlns="http://www.w3.org/2000/svg">
<path d="M13.5596 3.88914V2.02547H14.4103C14.9696 2.02547 15.4231 1.57201 15.4231 1.01273C15.4231 0.453462 14.9697 0 14.4103 0H9.58973C9.03045 0 8.57699 0.453462 8.57699 1.01273C8.57699 1.57201 9.03045 2.02547 9.58973 2.02547H10.4404V3.88914C5.60053 4.6414 1.88452 8.83703 1.88452 13.8844C1.88452 19.4621 6.42238 23.9999 12 23.9999C17.5777 23.9999 22.1155 19.4621 22.1155 13.8844C22.1155 8.83703 18.3995 4.6414 13.5596 3.88914ZM12 21.9745C7.53914 21.9745 3.90999 18.3453 3.90999 13.8845C3.90999 9.42369 7.53922 5.79446 12 5.79446C16.4608 5.79446 20.0901 9.42369 20.0901 13.8845C20.0901 18.3453 16.4609 21.9745 12 21.9745Z" fill="#1857A3"/>
<path d="M13.0128 13.4637V8.69256C13.0128 8.13329 12.5593 7.67982 12 7.67982C11.4408 7.67982 10.9873 8.13329 10.9873 8.69256V14.0479C10.9873 14.2126 11.0529 14.3705 11.1696 14.4867L14.0027 17.3079C14.3992 17.7026 15.0403 17.7012 15.435 17.3049C15.8296 16.9086 15.8283 16.2673 15.432 15.8727L13.0128 13.4637Z" fill="#1857A3"/>
</svg>
