<svg width="40" height="40" viewBox="0 0 40 40" fill="none" xmlns="http://www.w3.org/2000/svg">
<circle cx="20" cy="20" r="19" stroke="#E5E5E5" stroke-width="2"/>
<path d="M19.152 17.392H21.648V26H19.152V17.392ZM20.4 16.192C19.9413 16.192 19.568 16.0587 19.28 15.792C18.992 15.5253 18.848 15.1947 18.848 14.8C18.848 14.4053 18.992 14.0747 19.28 13.808C19.568 13.5413 19.9413 13.408 20.4 13.408C20.8587 13.408 21.232 13.536 21.52 13.792C21.808 14.048 21.952 14.368 21.952 14.752C21.952 15.168 21.808 15.5147 21.52 15.792C21.232 16.0587 20.8587 16.192 20.4 16.192Z" fill="black"/>
</svg>
