<svg width="25" height="19" viewBox="0 0 25 19" fill="none" xmlns="http://www.w3.org/2000/svg">
<path d="M3 3L3.74282 2.33051L2 0.396797V3H3ZM3 17H2V18H3V17ZM23 17V18L23.379 16.0746L23 17ZM2 3V17H4V3H2ZM3 18H23V16H3V18ZM23.379 16.0746C19.2726 14.3927 16.1639 12.9381 13.1893 10.9261C10.2172 8.91578 7.34075 6.32252 3.74282 2.33051L2.25718 3.66949C5.92206 7.73579 8.91952 10.4526 12.0687 12.5827C15.2154 14.7111 18.4753 16.2274 22.621 17.9254L23.379 16.0746Z" fill="#E5E5E5"/>
<rect width="25" height="3" transform="translate(0 16)" fill="white"/>
</svg>
