<svg width="27" height="15" viewBox="0 0 27 15" fill="none" xmlns="http://www.w3.org/2000/svg">
<path d="M26.32 1.02501C26.505 0.464379 26.32 0.0517578 25.43 0.0517578H22.485C21.735 0.0517578 21.39 0.406074 21.205 0.800755C21.205 0.800755 19.705 4.0793 17.585 6.2052C16.9 6.81965 16.585 7.01699 16.21 7.01699C16.025 7.01699 15.74 6.81965 15.74 6.25902V1.02501C15.74 0.352254 15.53 0.0517578 14.91 0.0517578H10.28C9.81 0.0517578 9.53 0.365709 9.53 0.657235C9.53 1.29411 10.59 1.44211 10.7 3.23612V7.12911C10.7 7.98127 10.53 8.13824 10.155 8.13824C9.155 8.13824 6.725 4.84624 5.285 1.07883C4.995 0.347769 4.71 0.0517578 3.955 0.0517578H1.01C0.17 0.0517578 0 0.406074 0 0.800755C0 1.50042 1 4.97631 4.655 9.56896C7.09 12.704 10.52 14.4038 13.64 14.4038C15.515 14.4038 15.745 14.0271 15.745 13.3767C15.745 10.3807 15.575 10.0982 16.515 10.0982C16.95 10.0982 17.7 10.2955 19.45 11.807C21.45 13.601 21.78 14.4038 22.9 14.4038H25.845C26.685 14.4038 27.11 14.0271 26.865 13.2826C26.305 11.7173 22.52 8.49704 22.35 8.28176C21.915 7.77944 22.04 7.55519 22.35 7.10669C22.355 7.1022 25.95 2.56337 26.32 1.02501Z" fill="white"/>
</svg>
