<svg width="24" height="24" viewBox="0 0 24 24" fill="none" xmlns="http://www.w3.org/2000/svg">
<g clip-path="url(#clip0)">
<path d="M17.7588 13.7909C17.712 13.7685 15.9624 12.9069 15.6514 12.795C15.5245 12.7494 15.3885 12.7049 15.2439 12.7049C15.0077 12.7049 14.8092 12.8227 14.6546 13.0539C14.4798 13.3137 13.9507 13.9322 13.7872 14.117C13.7659 14.1413 13.7367 14.1705 13.7193 14.1705C13.7036 14.1705 13.4328 14.059 13.3509 14.0234C11.474 13.2081 10.0493 11.2475 9.85396 10.9169C9.82607 10.8693 9.8249 10.8477 9.82466 10.8477C9.83152 10.8226 9.89464 10.7593 9.92721 10.7266C10.0225 10.6324 10.1258 10.5081 10.2257 10.3878C10.2729 10.3309 10.3203 10.2738 10.3668 10.2201C10.5118 10.0514 10.5763 9.92054 10.6511 9.7689L10.6903 9.69012C10.8729 9.32724 10.7169 9.02101 10.6665 8.92213C10.6252 8.83937 9.88638 7.05636 9.80783 6.86904C9.61895 6.41701 9.36937 6.20654 9.02253 6.20654C8.99035 6.20654 9.02253 6.20654 8.88757 6.21223C8.72324 6.21917 7.8283 6.33698 7.43261 6.58641C7.013 6.85096 6.30313 7.69423 6.30313 9.17724C6.30313 10.512 7.15014 11.7722 7.51381 12.2515C7.52285 12.2636 7.53944 12.2881 7.56352 12.3233C8.95622 14.3573 10.6924 15.8646 12.4524 16.5677C14.1468 17.2445 14.9492 17.3227 15.4054 17.3227C15.4054 17.3227 15.4054 17.3227 15.4054 17.3227C15.5971 17.3227 15.7506 17.3077 15.8859 17.2944L15.9718 17.2862C16.5571 17.2343 17.8435 16.5678 18.1361 15.7546C18.3666 15.1142 18.4273 14.4145 18.274 14.1605C18.169 13.9878 17.9879 13.901 17.7588 13.7909Z" fill="white"/>
<path d="M12.2133 0C5.71332 0 0.425213 5.24836 0.425213 11.6995C0.425213 13.786 0.983603 15.8284 2.0414 17.6159L0.0167455 23.5883C-0.0209688 23.6996 0.00708319 23.8227 0.0894469 23.9066C0.148901 23.9673 0.229551 24 0.311915 24C0.343473 24 0.375265 23.9952 0.406278 23.9854L6.63382 22.0064C8.33797 22.917 10.2641 23.3976 12.2134 23.3976C18.7127 23.3977 24.0002 18.1498 24.0002 11.6995C24.0002 5.24836 18.7127 0 12.2133 0ZM12.2133 20.9606C10.3791 20.9606 8.60252 20.4309 7.0754 19.4289C7.02405 19.3951 6.96444 19.3778 6.90444 19.3778C6.87272 19.3778 6.84093 19.3826 6.81 19.3925L3.69038 20.3841L4.69745 17.413C4.73002 17.3169 4.71374 17.2108 4.65374 17.1288C3.49083 15.5398 2.8761 13.6625 2.8761 11.6995C2.8761 6.59221 7.06473 2.43709 12.2132 2.43709C17.361 2.43709 21.5492 6.59221 21.5492 11.6995C21.5493 16.8061 17.3612 20.9606 12.2133 20.9606Z" fill="white"/>
</g>
<defs>
<clipPath id="clip0">
<rect width="24" height="24" fill="white"/>
</clipPath>
</defs>
</svg>
