<svg width="25" height="26" viewBox="0 0 25 26" fill="none" xmlns="http://www.w3.org/2000/svg">
<path d="M24.0234 3.43765H19.2144V2.45312C19.2144 1.91377 18.7772 1.47656 18.2378 1.47656C17.6985 1.47656 17.2613 1.91377 17.2613 2.45312V3.43765H7.73872V2.45312C7.73872 1.91377 7.30151 1.47656 6.76216 1.47656C6.2228 1.47656 5.7856 1.91377 5.7856 2.45312V3.43765H0.976562C0.437207 3.43765 0 3.8749 0 4.41421V23.5469C0 24.0862 0.437207 24.5234 0.976562 24.5234H24.0234C24.5628 24.5234 25 24.0862 25 23.5469V4.41421C25 3.8749 24.5628 3.43765 24.0234 3.43765ZM23.0469 22.5703H1.95312V5.39077H5.7856V6.37534C5.7856 6.9147 6.2228 7.3519 6.76216 7.3519C7.30151 7.3519 7.73872 6.9147 7.73872 6.37534V5.39077H17.2612V6.37534C17.2612 6.9147 17.6984 7.3519 18.2378 7.3519C18.7771 7.3519 19.2144 6.9147 19.2144 6.37534V5.39077H23.0469V22.5703Z" fill="black"/>
<path d="M12.5 13.2905C13.2281 13.2905 13.8184 12.7003 13.8184 11.9722C13.8184 11.2441 13.2281 10.6538 12.5 10.6538C11.7719 10.6538 11.1816 11.2441 11.1816 11.9722C11.1816 12.7003 11.7719 13.2905 12.5 13.2905Z" fill="black"/>
<path d="M12.5 19.0283C13.2281 19.0283 13.8184 18.4381 13.8184 17.71C13.8184 16.9819 13.2281 16.3916 12.5 16.3916C11.7719 16.3916 11.1816 16.9819 11.1816 17.71C11.1816 18.4381 11.7719 19.0283 12.5 19.0283Z" fill="black"/>
<path d="M6.76221 13.2905C7.49032 13.2905 8.08057 12.7003 8.08057 11.9722C8.08057 11.2441 7.49032 10.6538 6.76221 10.6538C6.0341 10.6538 5.44385 11.2441 5.44385 11.9722C5.44385 12.7003 6.0341 13.2905 6.76221 13.2905Z" fill="black"/>
<path d="M18.2378 13.2905C18.9659 13.2905 19.5562 12.7003 19.5562 11.9722C19.5562 11.2441 18.9659 10.6538 18.2378 10.6538C17.5097 10.6538 16.9194 11.2441 16.9194 11.9722C16.9194 12.7003 17.5097 13.2905 18.2378 13.2905Z" fill="black"/>
<path d="M6.76221 19.0283C7.49032 19.0283 8.08057 18.4381 8.08057 17.71C8.08057 16.9819 7.49032 16.3916 6.76221 16.3916C6.0341 16.3916 5.44385 16.9819 5.44385 17.71C5.44385 18.4381 6.0341 19.0283 6.76221 19.0283Z" fill="black"/>
<path d="M18.2378 19.0283C18.9659 19.0283 19.5562 18.4381 19.5562 17.71C19.5562 16.9819 18.9659 16.3916 18.2378 16.3916C17.5097 16.3916 16.9194 16.9819 16.9194 17.71C16.9194 18.4381 17.5097 19.0283 18.2378 19.0283Z" fill="black"/>
</svg>
