<svg width="23" height="23" viewBox="0 0 23 23" fill="none" xmlns="http://www.w3.org/2000/svg">
<path d="M10.1821 7.8926L9.84487 9.82005L11.6108 8.91001L13.3768 9.82005L13.0396 7.8926L14.4683 6.52753L12.4938 6.2463L11.6108 4.49261L10.7278 6.2463L8.75342 6.52753L10.1821 7.8926Z" fill="white"/>
<path d="M18.6325 2.17163C18.6352 1.89504 18.6362 1.62253 18.6362 1.35522V0.49585L4.54248 0.49585V1.35522C4.54248 1.62253 4.54347 1.89504 4.54622 2.17163H0.632324V3.03101C0.632324 5.23036 1.21043 7.08859 2.39967 8.71199C3.40935 10.0902 4.67921 11.0576 5.79957 11.911C6.49679 12.4421 7.11824 12.9162 7.55777 13.3955C8.42054 14.5377 9.48513 15.5295 10.73 16.3508V17.7693H10.3003C8.16793 17.7693 6.43311 19.5041 6.43311 21.6365V22.4958H16.7456V21.6365C16.7456 19.5041 15.0108 17.7693 12.8784 17.7693H12.4487V16.3508C13.6913 15.5309 14.7544 14.5412 15.6164 13.4016C16.0603 12.9186 16.6943 12.4406 17.406 11.9047C18.5384 11.052 19.8219 10.0855 20.843 8.7089C22.047 7.08562 22.6323 5.22838 22.6323 3.03101V2.17163H18.6325ZM2.38803 3.89038H4.59396C4.6771 5.57097 4.88984 7.35319 5.42398 9.1165C5.46639 9.25649 5.51113 9.39476 5.55702 9.53218C4.02612 8.24548 2.63007 6.62758 2.38803 3.89038ZM12.8784 19.488C13.7577 19.488 14.5153 20.0189 14.8475 20.7771H8.33125C8.6634 20.0189 9.42098 19.488 10.3003 19.488H12.8784ZM14.3363 12.2558C14.1717 12.4358 14.0206 12.6214 13.8879 12.8153L13.8914 12.8177C13.2622 13.5594 12.5039 14.2456 11.5894 14.8586C10.6748 14.2456 9.9165 13.5594 9.28726 12.8177L9.29078 12.8152C9.15625 12.6186 9.00332 12.4306 8.83673 12.2482C6.68804 9.32898 6.31168 5.66864 6.26647 2.2146H16.9122C16.867 5.67169 16.4899 9.33534 14.3363 12.2558ZM17.6083 9.57197C17.659 9.42158 17.7082 9.26998 17.7547 9.1165C18.2889 7.35319 18.5016 5.57097 18.5847 3.89038H20.8759C20.6271 6.65551 19.1806 8.27775 17.6083 9.57197Z" fill="white"/>
</svg>
