<svg width="25" height="25" viewBox="0 0 25 25" fill="none" xmlns="http://www.w3.org/2000/svg">
<path d="M24.0234 2.93765H19.2144V1.95312C19.2144 1.41377 18.7772 0.976562 18.2378 0.976562C17.6985 0.976562 17.2613 1.41377 17.2613 1.95312V2.93765H7.73872V1.95312C7.73872 1.41377 7.30151 0.976562 6.76216 0.976562C6.2228 0.976562 5.7856 1.41377 5.7856 1.95312V2.93765H0.976562C0.437207 2.93765 0 3.3749 0 3.91421V23.0469C0 23.5862 0.437207 24.0234 0.976562 24.0234H24.0234C24.5628 24.0234 25 23.5862 25 23.0469V3.91421C25 3.3749 24.5628 2.93765 24.0234 2.93765ZM23.0469 22.0703H1.95312V4.89077H5.7856V5.87534C5.7856 6.4147 6.2228 6.8519 6.76216 6.8519C7.30151 6.8519 7.73872 6.4147 7.73872 5.87534V4.89077H17.2612V5.87534C17.2612 6.4147 17.6984 6.8519 18.2378 6.8519C18.7771 6.8519 19.2144 6.4147 19.2144 5.87534V4.89077H23.0469V22.0703Z" fill="#1857A3"/>
<path d="M12.5 12.7905C13.2281 12.7905 13.8184 12.2003 13.8184 11.4722C13.8184 10.7441 13.2281 10.1538 12.5 10.1538C11.7719 10.1538 11.1816 10.7441 11.1816 11.4722C11.1816 12.2003 11.7719 12.7905 12.5 12.7905Z" fill="#1857A3"/>
<path d="M12.5 18.5283C13.2281 18.5283 13.8184 17.9381 13.8184 17.21C13.8184 16.4819 13.2281 15.8916 12.5 15.8916C11.7719 15.8916 11.1816 16.4819 11.1816 17.21C11.1816 17.9381 11.7719 18.5283 12.5 18.5283Z" fill="#1857A3"/>
<path d="M6.76221 12.7905C7.49032 12.7905 8.08057 12.2003 8.08057 11.4722C8.08057 10.7441 7.49032 10.1538 6.76221 10.1538C6.0341 10.1538 5.44385 10.7441 5.44385 11.4722C5.44385 12.2003 6.0341 12.7905 6.76221 12.7905Z" fill="#1857A3"/>
<path d="M18.2378 12.7905C18.9659 12.7905 19.5562 12.2003 19.5562 11.4722C19.5562 10.7441 18.9659 10.1538 18.2378 10.1538C17.5097 10.1538 16.9194 10.7441 16.9194 11.4722C16.9194 12.2003 17.5097 12.7905 18.2378 12.7905Z" fill="#1857A3"/>
<path d="M6.76221 18.5283C7.49032 18.5283 8.08057 17.9381 8.08057 17.21C8.08057 16.4819 7.49032 15.8916 6.76221 15.8916C6.0341 15.8916 5.44385 16.4819 5.44385 17.21C5.44385 17.9381 6.0341 18.5283 6.76221 18.5283Z" fill="#1857A3"/>
<path d="M18.2378 18.5283C18.9659 18.5283 19.5562 17.9381 19.5562 17.21C19.5562 16.4819 18.9659 15.8916 18.2378 15.8916C17.5097 15.8916 16.9194 16.4819 16.9194 17.21C16.9194 17.9381 17.5097 18.5283 18.2378 18.5283Z" fill="#1857A3"/>
</svg>
