<svg width="23" height="22" viewBox="0 0 23 22" fill="none" xmlns="http://www.w3.org/2000/svg">
<path d="M20.191 2.48443C19.5956 1.99244 17.1861 0.423955 11.8185 0.40293C11.8185 0.40293 5.48525 0.0623213 2.40066 2.60217C0.68491 4.14121 0.0801798 6.39512 0.0145502 9.19147C-0.0510794 11.9878 -0.130772 17.2273 5.49931 18.6486H5.504L5.49931 20.8184C5.49931 20.8184 5.46181 21.6973 6.10873 21.8739C6.88691 22.0925 7.34632 21.4239 8.09168 20.7049C8.49952 20.3096 9.06206 19.7293 9.48865 19.2878C13.3421 19.5779 16.3001 18.9135 16.6376 18.8168C17.4158 18.5897 21.8176 18.0851 22.5302 12.8457C23.2709 7.44217 22.1739 4.02768 20.191 2.48443ZM20.8426 12.4546C20.2378 16.8278 16.6704 17.1054 16.0141 17.2946C15.7328 17.3745 13.1311 17.9548 9.86368 17.7656C9.86368 17.7656 7.42601 20.4021 6.66658 21.0875C6.41813 21.3104 6.14623 21.2894 6.15092 20.8478C6.15092 20.5577 6.16967 17.2441 6.16967 17.2441C6.16498 17.2441 6.16498 17.2441 6.16967 17.2441C1.40215 16.0583 1.67873 11.5968 1.73498 9.26296C1.78655 6.92916 2.27877 5.01586 3.732 3.72912C6.34312 1.60557 11.7201 1.92095 11.7201 1.92095C16.2626 1.93777 18.4377 3.16564 18.944 3.57774C20.6176 4.86448 21.4707 7.94257 20.8426 12.4546ZM14.3312 9.05691C14.3499 9.41854 13.7452 9.44377 13.7265 9.08214C13.6749 8.15703 13.192 7.70709 12.1982 7.65663C11.7951 7.6356 11.8326 7.09315 12.231 7.11418C13.5389 7.17725 14.2656 7.85006 14.3312 9.05691ZM15.2828 9.53208C15.3297 7.74914 14.0874 6.35307 11.7294 6.19748C11.331 6.17225 11.3732 5.6298 11.7716 5.65503C14.4906 5.83164 15.9391 7.50945 15.8875 9.54469C15.8782 9.90633 15.2734 9.88951 15.2828 9.53208ZM17.4814 10.0956C17.4861 10.4572 16.8767 10.4614 16.8767 10.0998C16.8485 6.67265 14.3031 4.80561 11.2138 4.78458C10.8153 4.78038 10.8153 4.24213 11.2138 4.24213C14.6734 4.26316 17.4533 6.40353 17.4814 10.0956ZM16.9564 14.2207V14.2291C16.4501 15.0281 15.5031 15.9111 14.5281 15.6294L14.5187 15.6168C13.5296 15.3687 11.1997 14.2922 9.72773 13.2409C8.96831 12.7027 8.27451 12.0677 7.74009 11.458C7.25725 10.9155 6.76971 10.2722 6.29624 9.49844C5.29773 7.8795 5.07741 7.15623 5.07741 7.15623C4.76332 6.28158 5.74308 5.43216 6.63845 4.97802H6.64783C7.07911 4.77617 7.49164 4.84345 7.76822 5.14201C7.76822 5.14201 8.34951 5.76436 8.59797 6.07133C8.83236 6.35727 9.14644 6.81562 9.31052 7.07213C9.59647 7.53048 9.41834 7.99724 9.13707 8.19067L8.57453 8.59435C8.28857 8.8004 8.32607 9.18306 8.32607 9.18306C8.32607 9.18306 9.16051 12.0131 12.2779 12.7279C12.2779 12.7279 12.7045 12.7616 12.9342 12.505L13.3842 12.0004C13.5999 11.7481 14.1202 11.5883 14.6312 11.8449C15.3203 12.1939 16.1969 12.7363 16.7782 13.2283C17.1064 13.468 17.1814 13.8338 16.9564 14.2207Z" fill="white"/>
</svg>
